<svg xmlns="http://www.w3.org/2000/svg" viewBox="0 0 481.65 68.46"><defs><style>.cls-1{fill:#3cc;}</style></defs><g id="info"><path class="cls-1" d="M14.87,12.72H0V.79H43.33V12.72H28.54V53.83H14.87Z"/><path class="cls-1" d="M60.35,14.47C71.72,14.47,80,22.82,80,35.86v2.62H52.63c.72,3.58,4.06,6.84,9.78,6.84a15.22,15.22,0,0,0,9.39-3.26L77,49.7c-3.81,3.41-10.17,5.08-16.06,5.08-11.84,0-21-7.71-21-20.19C39.91,23.46,48.34,14.47,60.35,14.47ZM52.47,30.53H68.3c-.32-2.7-2.31-6.6-7.95-6.6A7.6,7.6,0,0,0,52.47,30.53Z"/><path class="cls-1" d="M104.47,14.47c8.27,0,13.44,3.66,15.75,7.08l-8,7.39A8.42,8.42,0,0,0,105,25.29c-5.09,0-9,3.49-9,9.3S99.94,44,105,44a8.66,8.66,0,0,0,7.24-3.74l8,7.48c-2.31,3.34-7.48,7.07-15.75,7.07-12,0-21-8.11-21-20.19S92.47,14.47,104.47,14.47Z"/><path class="cls-1" d="M151.86,31.49c0-4.69-2.47-6.2-6.36-6.2A9.45,9.45,0,0,0,138.1,29V53.83H125.86V.79H138.1V20.12a17.35,17.35,0,0,1,13.28-5.65c8.75,0,12.72,4.93,12.72,12V53.83H151.86Z"/><path class="cls-1" d="M197.1,36.1a23.93,23.93,0,0,0,16.93,7c4.69,0,7.56-2,7.56-4.54,0-3-3.42-4.21-9.07-5.4-8.74-1.75-21-4-21-16.54C191.53,7.71,199.08,0,212.68,0c8.51,0,15.9,2.54,21.55,7.39l-7.48,9.78a24.66,24.66,0,0,0-14.94-5.48c-4.54,0-6.29,1.83-6.29,4.13,0,2.79,3.27,3.74,9.15,4.85,8.75,1.83,20.83,4.38,20.83,16.38,0,10.66-7.87,17.73-22.1,17.73-10.74,0-18.21-3.33-23.54-8.42Z"/><path class="cls-1" d="M267.46,49.22a17.48,17.48,0,0,1-13.28,5.56c-8.74,0-12.64-4.93-12.64-12V15.43h12.25V37.77c0,4.61,2.38,6.2,6.36,6.2a9.17,9.17,0,0,0,7.31-3.74V15.43h12.25v38.4H267.46Z"/><path class="cls-1" d="M288.61,68.46v-53h12.24v4.45a14.33,14.33,0,0,1,11.37-5.41c9.62,0,16.86,7.16,16.86,20.12s-7.24,20.19-16.86,20.19a14.28,14.28,0,0,1-11.37-5.48V68.46Zm19.56-43.17a9.8,9.8,0,0,0-7.32,3.49V40.47a10.06,10.06,0,0,0,7.32,3.5c4.77,0,8.43-3.58,8.43-9.38S312.94,25.29,308.17,25.29Z"/><path class="cls-1" d="M335.52,68.46v-53h12.24v4.45a14.33,14.33,0,0,1,11.37-5.41c9.62,0,16.86,7.16,16.86,20.12s-7.24,20.19-16.86,20.19a14.28,14.28,0,0,1-11.37-5.48V68.46Zm19.56-43.17a9.8,9.8,0,0,0-7.32,3.49V40.47a10.06,10.06,0,0,0,7.32,3.5c4.77,0,8.42-3.58,8.42-9.38S359.85,25.29,355.08,25.29Z"/><path class="cls-1" d="M379.88,34.59c0-10.82,7.87-20.12,20.91-20.12,13.2,0,21,9.3,21,20.12s-7.79,20.19-21,20.19C387.75,54.78,379.88,45.4,379.88,34.59Zm29.34,0c0-5.09-3-9.3-8.43-9.3s-8.27,4.21-8.27,9.3S395.46,44,400.79,44,409.22,39.76,409.22,34.59Z"/><path class="cls-1" d="M428.22,15.43h12.24v4.85a16.73,16.73,0,0,1,12-5.81V26.32a9.83,9.83,0,0,0-3-.4c-3.18,0-7.39,1.35-9,3.58V53.83H428.22Z"/><path class="cls-1" d="M460.58,43.49V26.08h-6.36V15.43h6.36V4.93h12.17v10.5h7.79V26.08h-7.79v14c0,2.23,1.27,3.9,3.41,3.9a4.82,4.82,0,0,0,3.11-.95l2.38,9.22c-1.51,1.43-4.53,2.54-9.06,2.54C464.79,54.78,460.58,50.89,460.58,43.49Z"/></g></svg>